<?xml version="1.0" standalone="no"?>
<!DOCTYPE svg PUBLIC "-//W3C//DTD SVG 20010904//EN"
 "http://www.w3.org/TR/2001/REC-SVG-20010904/DTD/svg10.dtd">
<svg version="1.0" xmlns="http://www.w3.org/2000/svg"
 width="90.000000pt" height="90.000000pt" viewBox="0 0 90.000000 90.000000"
 preserveAspectRatio="xMidYMid meet">
<metadata>
Created by potrace 1.14, written by Peter Selinger 2001-2017
</metadata>
<g transform="translate(0.000000,90.000000) scale(0.100000,-0.100000)"
fill="#000000" stroke="none">
<path d="M358 853 c-10 -3 -19 -9 -19 -14 -1 -5 -2 -15 -3 -21 -1 -7 2 -18 7
-25 6 -8 -1 -17 -22 -27 -80 -42 -112 -147 -88 -288 6 -37 17 -29 17 12 0 24
9 62 20 84 31 64 100 133 139 141 38 7 20 -26 -29 -55 -25 -14 -47 -35 -49
-45 -3 -16 2 -17 38 -12 28 3 44 1 52 -9 9 -11 3 -17 -34 -33 -76 -33 -88 -92
-14 -69 55 17 57 2 4 -46 -31 -29 -47 -52 -47 -68 0 -49 49 -64 90 -28 30 26
43 25 55 -2 20 -46 91 -27 78 21 -3 12 5 24 24 36 74 47 109 116 100 199 -4
44 -48 166 -60 166 -2 0 -2 -46 1 -102 3 -79 0 -112 -12 -140 -17 -39 -72 -88
-99 -88 -28 0 -19 27 16 51 54 39 58 62 9 59 -49 -4 -62 0 -62 16 0 8 15 21
33 29 18 7 41 23 52 35 25 28 8 40 -46 33 -23 -4 -39 -2 -39 5 0 5 20 32 44
58 50 57 63 86 42 103 -29 24 -58 21 -86 -9 -34 -37 -48 -38 -56 -5 -7 28 -30
44 -56 38z"/>
<path d="M98 205 c-25 -41 -25 -44 -9 -59 25 -22 58 -20 66 4 3 11 11 20 16
20 21 0 8 46 -18 62 -28 16 -28 16 -55 -27z m36 -29 c-9 -15 -19 -24 -22 -22
-2 3 3 17 12 32 10 14 20 23 23 21 2 -3 -3 -17 -13 -31z"/>
<path d="M738 226 c-24 -17 -23 -37 3 -70 23 -30 55 -32 72 -5 8 12 4 26 -12
53 -24 39 -36 43 -63 22z m52 -70 c0 -6 -9 0 -20 14 -26 33 -25 52 0 21 11
-13 20 -28 20 -35z"/>
<path d="M210 191 c0 -5 -3 -16 -6 -25 -4 -11 -1 -16 10 -16 9 0 16 2 16 4 0
2 3 11 6 19 3 8 -2 17 -10 20 -9 4 -16 2 -16 -2z"/>
<path d="M651 181 c-11 -7 -9 -17 7 -54 20 -46 21 -46 51 -36 17 6 28 15 25
21 -3 5 -13 7 -20 4 -10 -4 -20 7 -32 34 -12 29 -21 37 -31 31z"/>
<path d="M255 125 c-30 -53 -31 -59 -5 -52 11 3 27 -1 34 -9 25 -25 32 -16 31
43 0 74 -23 80 -60 18z"/>
<path d="M580 160 c-18 -4 -24 -12 -22 -26 14 -83 17 -88 57 -78 28 7 29 31 1
26 -20 -4 -21 14 0 22 8 3 13 10 9 15 -3 6 -12 8 -20 4 -8 -3 -15 0 -15 6 0 6
7 11 15 11 16 0 21 16 8 23 -5 2 -19 1 -33 -3z"/>
<path d="M358 138 c-2 -7 -6 -32 -7 -55 -2 -34 1 -43 13 -43 10 0 16 9 17 23
l0 22 9 -21 c10 -26 26 -38 34 -26 9 14 12 102 4 102 -5 0 -12 0 -18 0 -5 0
-7 -7 -4 -15 4 -8 2 -15 -4 -15 -5 0 -12 9 -15 20 -6 22 -23 27 -29 8z"/>
<path d="M472 141 c-9 -5 -12 -24 -10 -52 3 -43 4 -44 38 -44 31 0 35 3 35 25
0 18 -6 26 -22 28 -14 2 -23 10 -23 20 0 14 2 14 9 3 5 -8 16 -11 27 -7 13 5
15 9 6 18 -15 15 -44 19 -60 9z m32 -67 c3 -8 2 -12 -4 -9 -6 3 -10 10 -10 16
0 14 7 11 14 -7z"/>
</g>
</svg>
